<svg width="126" height="52" viewBox="0 0 126 52" fill="none" xmlns="http://www.w3.org/2000/svg">
<g filter="url(#filter0_d_69_2215)">
<rect x="10.5" y="5" width="105" height="32" rx="16" fill="#222222"/>
<path fill-rule="evenodd" clip-rule="evenodd" d="M44.6589 20.4008H41.1589V16.9008C41.1589 16.7417 41.0957 16.589 40.9832 16.4765C40.8706 16.364 40.718 16.3008 40.5589 16.3008C40.3998 16.3008 40.2471 16.364 40.1346 16.4765C40.0221 16.589 39.9589 16.7417 39.9589 16.9008V20.4008H36.4589C36.2998 20.4008 36.1471 20.464 36.0346 20.5765C35.9221 20.689 35.8589 20.8417 35.8589 21.0008C35.8589 21.1599 35.9221 21.3125 36.0346 21.425C36.1471 21.5376 36.2998 21.6008 36.4589 21.6008H39.9589V25.1008C39.9589 25.2599 40.0221 25.4125 40.1346 25.525C40.2471 25.6376 40.3998 25.7008 40.5589 25.7008C40.718 25.7008 40.8706 25.6376 40.9832 25.525C41.0957 25.4125 41.1589 25.2599 41.1589 25.1008V21.6008H44.6589C44.818 21.6008 44.9706 21.5376 45.0832 21.425C45.1957 21.3125 45.2589 21.1599 45.2589 21.0008C45.2589 20.8417 45.1957 20.689 45.0832 20.5765C44.9706 20.464 44.818 20.4008 44.6589 20.4008Z" fill="white"/>
<path d="M53.791 16.5029C55.2788 16.4976 56.396 17.4321 56.4014 18.7373C56.396 20.0317 55.2788 20.9556 53.791 20.9609C52.2817 20.9556 51.1592 20.0317 51.1592 18.7373C51.1592 17.4321 52.2817 16.4976 53.791 16.5029ZM52.4912 18.7373C52.4805 19.4355 53.0337 19.8491 53.791 19.8545C54.5322 19.8491 55.0747 19.4355 55.0801 18.7373C55.0747 18.0337 54.5322 17.6201 53.791 17.6201C53.0391 17.6201 52.4805 18.0337 52.4912 18.7373ZM52.6309 22.5723V21.5195H59.1943V24.1729H53.9951V24.8066H59.4629V25.8809H52.6523V23.1738H57.8301V22.5723H52.6309ZM57.8193 21.1113V16.2129H59.1943V21.1113H57.8193ZM68.7549 16.2129V22.0137H67.3906V19.7041H65.8652V18.5977H67.3906V16.2129H68.7549ZM60.4512 20.9395C62.0518 20.4023 62.7822 19.124 62.8145 17.8994H60.8486V16.8037H66.1553V17.8994H64.2109C64.2378 19.0381 64.936 20.1875 66.4561 20.6924L65.7793 21.7666C64.7051 21.4175 63.9585 20.7085 63.5342 19.833C63.1045 20.8267 62.3203 21.627 61.1602 22.0244L60.4512 20.9395ZM62.0518 24.1191C62.0518 22.9321 63.3301 22.2339 65.4141 22.2285C67.5034 22.2339 68.7817 22.9321 68.7871 24.1191C68.7817 25.3062 67.5034 25.999 65.4141 25.999C63.3301 25.999 62.0518 25.3062 62.0518 24.1191ZM63.416 24.1191C63.416 24.6777 64.1196 24.957 65.4141 24.957C66.7139 24.957 67.4175 24.6777 67.4229 24.1191C67.4175 23.5552 66.7139 23.2759 65.4141 23.2812C64.1196 23.2759 63.416 23.5552 63.416 24.1191ZM81.4736 22.0674V23.1846H77.6816V25.999H76.3281V23.1846H72.5576V22.0674H81.4736ZM73.0088 20.4668C75.0391 20.2412 76.1401 19.2852 76.3066 18.415H73.3633V17.3408H76.3281V16.2236H77.6816V17.3408H80.6572V18.415H77.7246C77.875 19.2744 78.9761 20.2412 81.001 20.4668L80.5068 21.541C78.8472 21.353 77.6494 20.6709 77.0156 19.7847C76.3765 20.6816 75.1733 21.353 73.5029 21.541L73.0088 20.4668ZM89.7773 16.2129V19.9619H91.1631V21.0898H89.7773V25.9668H88.4023V16.2129H89.7773ZM81.957 23.2275C84.272 22.0674 85.5181 20.5098 85.7759 18.3291H82.5156V17.2119H87.167C87.1562 20.1338 86.0176 22.6636 82.7305 24.2803L81.957 23.2275Z" fill="white"/>
</g>
<defs>
<filter id="filter0_d_69_2215" x="0.5" y="0" width="125" height="52" filterUnits="userSpaceOnUse" color-interpolation-filters="sRGB">
<feFlood flood-opacity="0" result="BackgroundImageFix"/>
<feColorMatrix in="SourceAlpha" type="matrix" values="0 0 0 0 0 0 0 0 0 0 0 0 0 0 0 0 0 0 127 0" result="hardAlpha"/>
<feOffset dy="5"/>
<feGaussianBlur stdDeviation="5"/>
<feComposite in2="hardAlpha" operator="out"/>
<feColorMatrix type="matrix" values="0 0 0 0 0.101961 0 0 0 0 0.101961 0 0 0 0 0.101961 0 0 0 0.1 0"/>
<feBlend mode="normal" in2="BackgroundImageFix" result="effect1_dropShadow_69_2215"/>
<feBlend mode="normal" in="SourceGraphic" in2="effect1_dropShadow_69_2215" result="shape"/>
</filter>
</defs>
</svg>
