<svg width="33" height="32" viewBox="0 0 33 32" fill="none" xmlns="http://www.w3.org/2000/svg">
<rect x="1" y="0.5" width="31" height="31" rx="7.5" fill="white"/>
<rect x="1" y="0.5" width="31" height="31" rx="7.5" stroke="#F1F1F1"/>
<path fill-rule="evenodd" clip-rule="evenodd" d="M21.2332 13.5337H20.1665V15.1337H21.2332C21.6999 15.1337 22.0332 15.467 22.0332 15.9337V20.7337C22.0332 21.2004 21.6999 21.5337 21.2332 21.5337H16.4332C15.9665 21.5337 15.6332 21.2004 15.6332 20.7337V19.8004H14.0332V20.7337C14.0332 22.067 15.0999 23.1337 16.4332 23.1337H21.2332C22.5665 23.1337 23.6332 22.067 23.6332 20.7337V15.9337C23.6332 14.6004 22.5665 13.5337 21.2332 13.5337Z" fill="#999999"/>
<path fill-rule="evenodd" clip-rule="evenodd" d="M11.7665 10.4672C11.2998 10.4672 10.9665 10.8005 10.9665 11.2672V16.0672C10.9665 16.5339 11.2998 16.8672 11.7665 16.8672H16.5665C17.0331 16.8672 17.3665 16.5339 17.3665 16.0672V11.2672C17.3665 10.8005 17.0331 10.4672 16.5665 10.4672H11.7665ZM16.5665 18.4672H11.7665C10.4331 18.4672 9.36646 17.4005 9.36646 16.0672V11.2672C9.36646 9.93385 10.4331 8.86719 11.7665 8.86719H16.5665C17.8998 8.86719 18.9665 9.93385 18.9665 11.2672V16.0672C18.9665 17.4005 17.8998 18.4672 16.5665 18.4672Z" fill="#999999"/>
</svg>
