<svg width="334" height="45" viewBox="0 0 334 45" fill="none" xmlns="http://www.w3.org/2000/svg">
<rect width="334" height="45" rx="8" fill="white"/>
<mask id="mask0_668_2063" style="mask-type:luminance" maskUnits="userSpaceOnUse" x="18" y="12" width="20" height="21">
<path d="M38 12.5H18V32.5H38V12.5Z" fill="white"/>
</mask>
<g mask="url(#mask0_668_2063)">
<path d="M37.6 22.7271C37.6 22.018 37.5364 21.3362 37.4182 20.6816H28V24.5498H33.3818C33.15 25.7998 32.4455 26.8589 31.3864 27.568V30.0771H34.6182C36.5091 28.3362 37.6 25.7725 37.6 22.7271Z" fill="#4285F4"/>
<path d="M27.9999 32.4999C30.6999 32.4999 32.9635 31.6044 34.618 30.0772L31.3862 27.5681C30.4908 28.1681 29.3453 28.5226 27.9999 28.5226C25.3953 28.5226 23.1908 26.7635 22.4044 24.3999H19.0635V26.9908C20.709 30.259 24.0908 32.4999 27.9999 32.4999Z" fill="#34A853"/>
<path d="M22.4045 24.4002C22.2045 23.8002 22.0909 23.1593 22.0909 22.5002C22.0909 21.8411 22.2045 21.2002 22.4045 20.6002V18.0093H19.0636C18.3864 19.3593 18 20.8866 18 22.5002C18 24.1138 18.3864 25.6411 19.0636 26.9911L22.4045 24.4002Z" fill="#FBBC04"/>
<path d="M27.9999 16.4773C29.468 16.4773 30.7862 16.9818 31.8226 17.9727L34.6908 15.1045C32.959 13.4909 30.6953 12.5 27.9999 12.5C24.0908 12.5 20.709 14.7409 19.0635 18.0091L22.4044 20.6C23.1908 18.2364 25.3953 16.4773 27.9999 16.4773Z" fill="#E94235"/>
</g>
<g filter="url(#filter0_i_668_2063)">
<path d="M120.157 21.2412C119.865 20.2637 119.103 19.667 117.986 19.667C116.5 19.667 115.434 20.8223 115.434 22.8916C115.434 24.9863 116.488 26.1416 118.024 26.1416C119.408 26.1416 120.296 25.3037 120.322 23.9961H118.189V22.6885H121.921V23.793C121.921 26.1543 120.296 27.627 118.024 27.627C115.485 27.627 113.771 25.8242 113.771 22.9043C113.771 19.959 115.561 18.1816 117.973 18.1816C120.004 18.1816 121.566 19.4385 121.845 21.2412H120.157ZM126.352 27.6396C124.346 27.6396 123.051 26.2178 123.051 24.085C123.051 21.9395 124.346 20.5176 126.352 20.5176C128.371 20.5176 129.653 21.9395 129.653 24.085C129.653 26.2178 128.371 27.6396 126.352 27.6396ZM126.365 26.3447C127.469 26.3447 128.015 25.3418 128.015 24.0723C128.015 22.8154 127.469 21.7998 126.365 21.7998C125.235 21.7998 124.689 22.8154 124.689 24.0723C124.689 25.3418 125.235 26.3447 126.365 26.3447ZM133.918 27.6396C131.913 27.6396 130.618 26.2178 130.618 24.085C130.618 21.9395 131.913 20.5176 133.918 20.5176C135.937 20.5176 137.219 21.9395 137.219 24.085C137.219 26.2178 135.937 27.6396 133.918 27.6396ZM133.931 26.3447C135.036 26.3447 135.582 25.3418 135.582 24.0723C135.582 22.8154 135.036 21.7998 133.931 21.7998C132.801 21.7998 132.255 22.8154 132.255 24.0723C132.255 25.3418 132.801 26.3447 133.931 26.3447ZM141.485 30.2295C139.657 30.2295 138.501 29.417 138.387 28.1221H140C140.114 28.7188 140.685 29.0107 141.51 29.0107C142.475 29.0107 143.11 28.5918 143.11 27.5762V26.2559H143.034C142.78 26.7637 142.234 27.3984 141.041 27.3984C139.454 27.3984 138.197 26.2432 138.197 23.9961C138.197 21.7236 139.454 20.5176 141.053 20.5176C142.272 20.5176 142.78 21.2412 143.034 21.7363H143.11V20.6064H144.709V27.6143C144.709 29.3789 143.351 30.2295 141.485 30.2295ZM141.485 26.1289C142.526 26.1289 143.123 25.3418 143.123 24.0215C143.123 22.7139 142.539 21.8379 141.485 21.8379C140.406 21.8379 139.847 22.7646 139.847 24.0215C139.847 25.291 140.418 26.1289 141.485 26.1289ZM147.883 18.3086V27.5H146.258V18.3086H147.883ZM152.492 27.6396C150.41 27.6396 149.14 26.2559 149.14 24.0977C149.14 21.9648 150.435 20.5176 152.403 20.5176C154.091 20.5176 155.551 21.5713 155.551 23.9961V24.5039H150.74C150.759 25.6782 151.451 26.3701 152.504 26.3701C153.215 26.3701 153.698 26.0654 153.901 25.6592H155.488C155.196 26.8525 154.091 27.6396 152.492 27.6396ZM150.752 23.3994H154.002C153.99 22.46 153.368 21.7744 152.428 21.7744C151.451 21.7744 150.803 22.5171 150.752 23.3994ZM169.402 17.1533V28.6299H168.056V17.1533H169.402ZM167.028 17.4326V28.084H165.682V24.25H163.892V23.0947H165.682V21.3936H164.095C163.556 23.2979 162.356 24.9355 160.21 26.2051L159.385 25.2021C161.766 23.7993 162.857 22.0029 163.067 19.6924H159.995V18.5498H164.463C164.463 19.1274 164.425 19.6924 164.349 20.2383H165.682V17.4326H167.028ZM180.345 17.1533V23.9707H178.936V21.165H176.981V20.0098H178.936V17.1533H180.345ZM176.46 24.2627C178.898 24.2627 180.383 25.0625 180.383 26.4463C180.383 27.8301 178.898 28.6299 176.46 28.6299C174.036 28.6299 172.55 27.8301 172.563 26.4463C172.55 25.0625 174.036 24.2627 176.46 24.2627ZM176.46 25.3418C174.861 25.3418 173.959 25.7227 173.959 26.4463C173.959 27.1572 174.861 27.5381 176.46 27.5381C178.06 27.5381 178.974 27.1572 178.974 26.4463C178.974 25.7227 178.06 25.3418 176.46 25.3418ZM174.95 19.1211C174.95 20.5176 175.876 21.9268 177.654 22.5234L176.943 23.6406C175.667 23.209 174.759 22.333 174.264 21.2539C173.756 22.479 172.798 23.4565 171.433 23.9453L170.697 22.8281C172.538 22.1934 173.515 20.6445 173.515 19.1338V19.0449H171.128V17.9023H177.324V19.0449H174.95V19.1211ZM187.188 17.8008C189.613 17.8008 191.466 19.083 191.466 21.0381C191.466 23.0186 189.613 24.3008 187.188 24.3008C184.776 24.3008 182.922 23.0186 182.935 21.0381C182.922 19.083 184.776 17.8008 187.188 17.8008ZM187.188 18.9434C185.525 18.9307 184.293 19.7686 184.293 21.0381C184.293 22.333 185.525 23.1455 187.188 23.1455C188.864 23.1455 190.083 22.333 190.083 21.0381C190.083 19.7686 188.864 18.9307 187.188 18.9434ZM192.457 26.0273V27.1826H181.97V26.0273H192.457ZM203.692 26.1289V27.2969H193.206V26.1289H197.725V24.2627H194.45V20.5049H201.051V19.083H194.424V17.9404H202.448V21.6221H195.859V23.1074H202.714V24.2627H199.122V26.1289H203.692ZM218.012 26.1289V27.2969H207.526V26.1289H212.045V24.2627H208.77V20.5049H215.372V19.083H208.745V17.9404H216.768V21.6221H210.179V23.1074H217.035V24.2627H213.442V26.1289H218.012ZM227.889 18.2705V19.5654C227.889 21.1016 227.889 22.6885 227.47 25.1006L226.036 24.9736C226.48 22.7139 226.48 21.0508 226.48 19.5654V19.4131H219.866V18.2705H227.889ZM229.222 25.9004V27.0557H218.761V25.9004H229.222ZM239.556 17.166V25.4561H238.134V17.166H239.556ZM239.874 27.2588V28.4014H231.964V24.6182H233.386V27.2588H239.874ZM233.297 17.915C235.037 17.915 236.382 19.1211 236.382 20.7842C236.382 22.4854 235.037 23.666 233.297 23.666C231.545 23.666 230.2 22.4854 230.2 20.7842C230.2 19.1211 231.545 17.915 233.297 17.915ZM233.297 19.1465C232.32 19.1465 231.571 19.7939 231.583 20.7842C231.571 21.7998 232.32 22.4346 233.297 22.4346C234.25 22.4346 234.999 21.7998 234.999 20.7842C234.999 19.7939 234.25 19.1465 233.297 19.1465Z" fill="black" fill-opacity="0.85"/>
</g>
<defs>
<filter id="filter0_i_668_2063" x="113.771" y="17.1533" width="126.103" height="17.0762" filterUnits="userSpaceOnUse" color-interpolation-filters="sRGB">
<feFlood flood-opacity="0" result="BackgroundImageFix"/>
<feBlend mode="normal" in="SourceGraphic" in2="BackgroundImageFix" result="shape"/>
<feColorMatrix in="SourceAlpha" type="matrix" values="0 0 0 0 0 0 0 0 0 0 0 0 0 0 0 0 0 0 127 0" result="hardAlpha"/>
<feOffset dy="4"/>
<feGaussianBlur stdDeviation="2"/>
<feComposite in2="hardAlpha" operator="arithmetic" k2="-1" k3="1"/>
<feColorMatrix type="matrix" values="0 0 0 0 0 0 0 0 0 0 0 0 0 0 0 0 0 0 0.25 0"/>
<feBlend mode="normal" in2="shape" result="effect1_innerShadow_668_2063"/>
</filter>
</defs>
</svg>
