<svg width="26" height="26" viewBox="0 0 26 26" fill="none" xmlns="http://www.w3.org/2000/svg">
<path fill-rule="evenodd" clip-rule="evenodd" d="M17.339 11.6799L12.6857 16.3332C12.5294 16.4894 12.3175 16.5772 12.0965 16.5772C11.8755 16.5772 11.6636 16.4894 11.5073 16.3332L8.66067 13.4857C8.5833 13.4083 8.52193 13.3165 8.48005 13.2154C8.43818 13.1143 8.41663 13.0059 8.41663 12.8965C8.41663 12.7871 8.43818 12.6788 8.48005 12.5777C8.52193 12.4766 8.5833 12.3847 8.66067 12.3074C8.73804 12.23 8.82989 12.1686 8.93098 12.1267C9.03207 12.0849 9.14042 12.0633 9.24984 12.0633C9.35926 12.0633 9.4676 12.0849 9.56869 12.1267C9.66978 12.1686 9.76163 12.23 9.839 12.3074L12.0965 14.5649L16.1607 10.5015C16.238 10.4242 16.3299 10.3628 16.431 10.3209C16.5321 10.279 16.6404 10.2575 16.7498 10.2575C16.8593 10.2575 16.9676 10.279 17.0687 10.3209C17.1698 10.3628 17.2616 10.4242 17.339 10.5015C17.4164 10.5789 17.4777 10.6707 17.5196 10.7718C17.5615 10.8729 17.583 10.9813 17.583 11.0907C17.583 11.2001 17.5615 11.3085 17.5196 11.4095C17.4777 11.5106 17.4164 11.6025 17.339 11.6799ZM19.4165 5.33403H18.0582V4.50069C18.0582 4.27968 17.9704 4.06772 17.8141 3.91144C17.6578 3.75516 17.4459 3.66736 17.2248 3.66736C17.0038 3.66736 16.7919 3.75516 16.6356 3.91144C16.4793 4.06772 16.3915 4.27968 16.3915 4.50069V5.33403H9.60817V4.50069C9.60817 4.27968 9.52037 4.06772 9.36409 3.91144C9.20781 3.75516 8.99585 3.66736 8.77484 3.66736C8.55382 3.66736 8.34186 3.75516 8.18558 3.91144C8.0293 4.06772 7.9415 4.27968 7.9415 4.50069V5.33403H6.58317C6.14114 5.33403 5.71722 5.50962 5.40466 5.82218C5.0921 6.13474 4.9165 6.55866 4.9165 7.00069V19.834C4.9165 20.2761 5.0921 20.7 5.40466 21.0125C5.71722 21.3251 6.14114 21.5007 6.58317 21.5007H19.4165C19.8585 21.5007 20.2825 21.3251 20.595 21.0125C20.9076 20.7 21.0832 20.2761 21.0832 19.834V7.00069C21.0832 6.55866 20.9076 6.13474 20.595 5.82218C20.2825 5.50962 19.8585 5.33403 19.4165 5.33403Z" fill="#1BB874"/>
</svg>
