<svg width="28" height="28" viewBox="0 0 28 28" fill="none" xmlns="http://www.w3.org/2000/svg">
<path fill-rule="evenodd" clip-rule="evenodd" d="M17.7853 9.4276C17.7854 9.97628 17.6773 10.5196 17.4674 11.0265C17.2575 11.5335 16.9498 11.9941 16.5618 12.3821C16.1739 12.7701 15.7133 13.0779 15.2065 13.288C14.6996 13.498 14.1563 13.6061 13.6076 13.6062C12.4995 13.6063 11.4367 13.1662 10.6531 12.3827C9.86942 11.5993 9.42912 10.5366 9.429 9.42845C9.42895 8.87977 9.53696 8.33645 9.74688 7.82951C9.9568 7.32257 10.2645 6.86195 10.6525 6.47393C11.4359 5.6903 12.4986 5.24999 13.6067 5.24988C14.7148 5.24976 15.7776 5.68985 16.5612 6.47333C17.3449 7.2568 17.7852 8.31949 17.7853 9.4276ZM13.6072 14.8844C7.59045 14.8844 5.25 18.7134 5.25 20.4948C5.25 22.2753 10.2322 22.7499 13.6072 22.7499C16.9821 22.7499 21.9643 22.2753 21.9643 20.4948C21.9643 18.7134 19.6239 14.8844 13.6072 14.8844Z" fill="#C8C8C8"/>
</svg>
