<svg width="10" height="10" viewBox="0 0 10 10" fill="none" xmlns="http://www.w3.org/2000/svg">
<path fill-rule="evenodd" clip-rule="evenodd" d="M4.99999 5.30924C4.84969 5.31212 4.70032 5.28501 4.56062 5.22949C4.42092 5.17396 4.29369 5.09114 4.18637 4.98587C4.07906 4.8806 3.99381 4.75498 3.93562 4.61637C3.87742 4.47776 3.84745 4.32894 3.84745 4.17861C3.84745 4.02828 3.87742 3.87946 3.93562 3.74085C3.99381 3.60224 4.07906 3.47663 4.18637 3.37135C4.29369 3.26608 4.42092 3.18326 4.56062 3.12774C4.70032 3.07221 4.84969 3.0451 4.99999 3.04799C5.29609 3.05367 5.57815 3.17529 5.78554 3.3867C5.99294 3.59812 6.10912 3.88246 6.10912 4.17861C6.10912 4.47477 5.99294 4.75911 5.78554 4.97052C5.57815 5.18194 5.29609 5.30355 4.99999 5.30924ZM4.11499 0.432154C2.33582 0.829237 1.08832 2.50382 1.15832 4.32549C1.21332 5.75632 2.09124 7.03632 4.70332 9.54757C4.86832 9.7059 5.13249 9.70674 5.2979 9.54799C7.99957 6.9509 8.84624 5.6709 8.84624 4.1784C8.84624 1.7659 6.62416 -0.127846 4.11499 0.432571" fill="#999999"/>
</svg>
