<svg width="92" height="92" fill="none" xmlns="http://www.w3.org/2000/svg">
    <g filter="url(#a)">
        <rect x="18" y="2" width="56" height="56" rx="28" stroke="#1BB874" stroke-opacity=".04" stroke-width="4" shape-rendering="crispEdges"/>
        <rect x="20" y="4" width="52" height="52" rx="26" fill="url(#b)"/>
        <g clip-path="url(#c)" fill="#fff">
            <path d="m47.713 21.767-.763-.152.23.839.533-.687ZM49.28 22.323l-.72-.298.063.867.657-.569ZM50.06 22.74l-.107.863.756-.431-.648-.432ZM52.938 25.616l-.431-.646-.43.756.861-.11ZM53.654 27.117l-.298-.72-.57.658.868.062ZM54.065 28.729l-.152-.763-.688.533.84.23ZM54.065 31.271l-.84.23.688.533.152-.762ZM53.654 32.882l-.868.062.57.657.298-.72ZM52.507 35.03l.431-.648-.862-.108.43.757ZM50.709 36.827l-.756-.43.108.863.648-.433ZM48.623 37.108l-.063.867.72-.298-.657-.569ZM46.95 38.384l.763-.15-.534-.687-.23.837ZM43.645 38.233l.762.15-.23-.836-.532.686ZM42.077 37.677l.718.298-.061-.867-.657.57ZM41.295 37.26l.11-.863-.757.43.647.433ZM38.418 34.382l.433.649.43-.757-.863.108ZM37.704 32.882l.297.72.57-.658-.867-.062ZM37.295 31.271l.152.763.686-.533-.838-.23ZM37.295 28.729l.838-.23-.686-.533-.152.763ZM37.704 27.119l.867-.063L38 26.4l-.297.72ZM38.85 24.97l-.432.646.863.11-.43-.756ZM40.648 23.172l.757.431-.11-.863-.647.432ZM42.734 22.892l.06-.867-.717.298.657.57ZM44.407 21.615l-.761.152.532.687.23-.839Z"/>
            <path d="M62.179 30.13 62.172 30l.007-.131-5.977-.598a10.51 10.51 0 0 0-2.832-6.487l.808-1.1-.1-.085-.084-.099-1.098.807a10.505 10.505 0 0 0-6.49-2.83L45.81 13.5l-.132.007-.13-.007-.599 5.976a10.508 10.508 0 0 0-6.486 2.83l-1.101-.807-.083.096-.102.088.805 1.1a10.51 10.51 0 0 0-2.829 6.487l-5.961.597h-.013l.006.132-.006.132 5.974.596a10.506 10.506 0 0 0 2.832 6.487l-.808 1.1.099.085.086.099 1.098-.805a10.511 10.511 0 0 0 6.488 2.829l.598 5.977.13-.007.133.007.598-5.977a10.508 10.508 0 0 0 6.487-2.832l1.1.807.087-.102.097-.083-.808-1.101a10.506 10.506 0 0 0 2.832-6.485l5.977-.598v.003Zm-12.711 1.006c.096-.319.152-.656.164-1.004h9.89l-10.053 1.004h-.001ZM42.908 30a2.77 2.77 0 1 1 5.54 0 2.77 2.77 0 0 1-5.54 0Zm5.66-2.702 4.376-4.376-3.797 5.176a3.937 3.937 0 0 0-.58-.799v-.001Zm-2.758-1.251v-9.89l1.006 10.053a3.947 3.947 0 0 0-1.006-.163Zm-2.834 1.063L38.6 22.735l5.176 3.796c-.29.16-.559.355-.799.58h-.001Zm-.188 5.592-4.377 4.376 3.797-5.176c.16.292.355.56.58.8Zm2.758 1.251v9.89L44.54 33.79c.32.096.657.151 1.006.163Zm2.836-1.064 2.25 2.251 2.127 2.127-5.177-3.797c.29-.16.56-.356.8-.58Zm5.96-3.804-4.968-.498a4.167 4.167 0 0 0-.093-.224l2.984-4.07a8.688 8.688 0 0 1 2.078 4.79v.002Zm-2.955-5.673-4.072 2.986a4.167 4.167 0 0 0-.224-.094l-.5-4.983a8.685 8.685 0 0 1 4.796 2.09Zm-6.621-2.098-.5 4.99c-.076.029-.15.06-.225.094l-4.092-3a8.703 8.703 0 0 1 4.816-2.084Zm-5.692 2.954 3.002 4.095c-.033.074-.065.15-.095.226l-5.003.5c.19-1.835.947-3.5 2.094-4.82h.002Zm2.814 4.594c-.096.32-.152.656-.163 1.005h-9.889l10.052-1.005Zm-4.913 2.049 5.006.5c.029.076.06.152.095.226l-3.002 4.093a8.691 8.691 0 0 1-2.098-4.82h-.001Zm2.973 5.693 4.093-3.002c.074.035.15.066.226.095l.499 4.986a8.685 8.685 0 0 1-4.817-2.08h-.001Zm6.644 2.078.498-4.985c.077-.029.151-.06.225-.095l4.071 2.985a8.696 8.696 0 0 1-4.794 2.094Zm5.673-2.976-2.984-4.07c.032-.075.064-.15.093-.225l4.966-.496a8.694 8.694 0 0 1-2.075 4.791Z"/>
            <path d="M48.032 30.018a2.354 2.354 0 1 0-4.709 0 2.354 2.354 0 0 0 4.709 0Zm-3.05 0a.678.678 0 1 1 1.356 0 .678.678 0 0 1-1.357 0Z"/>
        </g>
    </g>
    <defs>
        <linearGradient id="b" x1="29.177" y1="4" x2="65.118" y2="52.176" gradientUnits="userSpaceOnUse">
            <stop stop-color="#1BB874"/>
            <stop offset="1" stop-color="#1BAFB8"/>
        </linearGradient>
        <clipPath id="c">
            <path fill="#fff" transform="translate(29.179 13.5)" d="M0 0h33v33H0z"/>
        </clipPath>
        <filter id="a" x="0" y="0" width="92" height="92" filterUnits="userSpaceOnUse" color-interpolation-filters="sRGB">
            <feFlood flood-opacity="0" result="BackgroundImageFix"/>
            <feColorMatrix in="SourceAlpha" values="0 0 0 0 0 0 0 0 0 0 0 0 0 0 0 0 0 0 127 0" result="hardAlpha"/>
            <feOffset dy="16"/>
            <feGaussianBlur stdDeviation="8"/>
            <feComposite in2="hardAlpha" operator="out"/>
            <feColorMatrix values="0 0 0 0 0.026664 0 0 0 0 0.228581 0 0 0 0 0.141126 0 0 0 0.12 0"/>
            <feBlend in2="BackgroundImageFix" result="effect1_dropShadow_54_2069"/>
            <feBlend in="SourceGraphic" in2="effect1_dropShadow_54_2069" result="shape"/>
        </filter>
    </defs>
</svg>
