<svg width="16" height="16" viewBox="0 0 16 16" fill="none" xmlns="http://www.w3.org/2000/svg">
<path d="M14.5662 13.4339L11.4949 10.3626C12.2182 9.40388 12.6522 8.21588 12.6522 6.92522C12.6522 3.76788 10.0829 1.19922 6.9262 1.19922C3.76886 1.19989 1.2002 3.76855 1.2002 6.92589C1.2002 10.0826 3.76886 12.6519 6.9262 12.6519C8.2162 12.6519 9.40486 12.2179 10.3635 11.4946L13.4349 14.5659C13.5909 14.7219 13.7955 14.7999 14.0002 14.7999C14.2049 14.7999 14.4095 14.7219 14.5662 14.5652C14.8782 14.2532 14.8782 13.7466 14.5662 13.4339ZM2.8002 6.92589C2.8002 4.65055 4.65086 2.79989 6.9262 2.79989C9.20086 2.79989 11.0515 4.65055 11.0515 6.92522C11.0515 9.19988 9.20086 11.0506 6.9262 11.0506C4.65086 11.0512 2.8002 9.20055 2.8002 6.92589Z" fill="#1BB874"/>
</svg>
