<svg width="28" height="28" viewBox="0 0 28 28" fill="none" xmlns="http://www.w3.org/2000/svg">
<path fill-rule="evenodd" clip-rule="evenodd" d="M21.8525 17.4996L20.5456 16.8457L15.3349 19.451C14.9205 19.6575 14.4637 19.7646 14.0007 19.7639C13.5377 19.7645 13.081 19.6574 12.6665 19.451L7.45581 16.8457L6.14803 17.4996C6.00616 17.5703 5.88681 17.6792 5.80339 17.8139C5.71997 17.9487 5.67578 18.1041 5.67578 18.2626C5.67578 18.4211 5.71997 18.5765 5.80339 18.7113C5.88681 18.8461 6.00616 18.9549 6.14803 19.0256L13.2385 22.5696C13.4753 22.6882 13.7364 22.7499 14.0011 22.7499C14.2659 22.7499 14.527 22.6882 14.7637 22.5696L21.8534 19.0248C21.995 18.954 22.1142 18.8451 22.1974 18.7104C22.2807 18.5758 22.3248 18.4205 22.3248 18.2622C22.3248 18.1038 22.2807 17.9486 22.1974 17.8139C22.1142 17.6792 21.995 17.5704 21.8534 17.4996" fill="#C8C8C8"/>
<path fill-rule="evenodd" clip-rule="evenodd" d="M21.8525 13.237L20.5456 12.5831L15.3349 15.1885C14.9205 15.3949 14.4637 15.502 14.0007 15.5013C13.5377 15.5019 13.081 15.3948 12.6665 15.1885L7.45581 12.5831L6.14803 13.237C6.00616 13.3077 5.88681 13.4166 5.80339 13.5514C5.71997 13.6862 5.67578 13.8415 5.67578 14C5.67578 14.1586 5.71997 14.3139 5.80339 14.4487C5.88681 14.5835 6.00616 14.6923 6.14803 14.7631L13.2385 18.307C13.4753 18.4256 13.7364 18.4874 14.0011 18.4874C14.2659 18.4874 14.527 18.4256 14.7637 18.307L21.8534 14.7622C21.995 14.6914 22.1142 14.5826 22.1974 14.4479C22.2807 14.3132 22.3248 14.158 22.3248 13.9996C22.3248 13.8413 22.2807 13.686 22.1974 13.5514C22.1142 13.4167 21.995 13.3078 21.8534 13.237" fill="#C8C8C8"/>
<path fill-rule="evenodd" clip-rule="evenodd" d="M13.2384 14.0452L6.14876 10.4995C6.00734 10.4286 5.88843 10.3198 5.80533 10.1852C5.72223 10.0506 5.67822 9.89552 5.67822 9.73734C5.67822 9.57915 5.72223 9.42408 5.80533 9.28948C5.88843 9.15488 6.00734 9.04605 6.14876 8.97517L13.2384 5.43034C13.4751 5.31175 13.7363 5.25 14.001 5.25C14.2658 5.25 14.5269 5.31175 14.7636 5.43034L21.8533 8.97517C21.9949 9.04597 22.114 9.15481 22.1973 9.2895C22.2806 9.42419 22.3247 9.57941 22.3247 9.73776C22.3247 9.89611 22.2806 10.0513 22.1973 10.186C22.114 10.3207 21.9949 10.4296 21.8533 10.5004L14.7636 14.0452C14.5266 14.1635 14.2654 14.225 14.0006 14.225C13.7357 14.225 13.4745 14.1635 13.2376 14.0452" fill="#C8C8C8"/>
</svg>
