<svg width="28" height="28" viewBox="0 0 28 28" fill="none" xmlns="http://www.w3.org/2000/svg">
<path fill-rule="evenodd" clip-rule="evenodd" d="M21.2698 10.3479L14.499 4.56237C14.3573 4.44106 14.1815 4.375 14.0004 4.375C13.8193 4.375 13.6435 4.44106 13.5018 4.56237L6.73018 10.3479C6.54145 10.5092 6.38902 10.7142 6.28424 10.9476C6.17946 11.181 6.12503 11.4367 6.125 11.6959V19.8078C6.125 20.3561 6.32768 20.8819 6.68846 21.2695C7.04923 21.6572 7.53855 21.875 8.04876 21.875H12.3973V17.782C12.3973 17.5535 12.4817 17.3345 12.632 17.1729C12.7824 17.0114 12.9862 16.9207 13.1988 16.9207H14.802C15.0146 16.9207 15.2184 17.0114 15.3688 17.1729C15.5191 17.3345 15.6035 17.5535 15.6035 17.782V21.875H19.9512C20.4615 21.875 20.9508 21.6572 21.3115 21.2695C21.6723 20.8819 21.875 20.3561 21.875 19.8078V11.6967C21.875 11.4376 21.8205 11.1818 21.7158 10.9484C21.611 10.715 21.4585 10.5101 21.2698 10.3488" fill="currentColor"/>
</svg>
