<svg width="52" height="4" viewBox="0 0 52 4" fill="none" xmlns="http://www.w3.org/2000/svg">
<path opacity="0.6" d="M10 0H2C0.89543 0 0 0.89543 0 2C0 3.10457 0.89543 4 2 4H10C11.1046 4 12 3.10457 12 2C12 0.89543 11.1046 0 10 0Z" fill="#1BB874"/>
<path opacity="0.66" d="M18 4C19.1046 4 20 3.10457 20 2C20 0.89543 19.1046 0 18 0C16.8954 0 16 0.89543 16 2C16 3.10457 16.8954 4 18 4Z" fill="white"/>
<path opacity="0.66" d="M26 4C27.1046 4 28 3.10457 28 2C28 0.89543 27.1046 0 26 0C24.8954 0 24 0.89543 24 2C24 3.10457 24.8954 4 26 4Z" fill="white"/>
<path opacity="0.66" d="M34 4C35.1046 4 36 3.10457 36 2C36 0.89543 35.1046 0 34 0C32.8954 0 32 0.89543 32 2C32 3.10457 32.8954 4 34 4Z" fill="white"/>
<path opacity="0.66" d="M42 4C43.1046 4 44 3.10457 44 2C44 0.89543 43.1046 0 42 0C40.8954 0 40 0.89543 40 2C40 3.10457 40.8954 4 42 4Z" fill="white"/>
<path opacity="0.66" d="M50 4C51.1046 4 52 3.10457 52 2C52 0.89543 51.1046 0 50 0C48.8954 0 48 0.89543 48 2C48 3.10457 48.8954 4 50 4Z" fill="white"/>
</svg>
