<svg width="375" height="56" viewBox="0 0 375 56" fill="none" xmlns="http://www.w3.org/2000/svg">
<g clip-path="url(#clip0_1_4908)">
<path fill-rule="evenodd" clip-rule="evenodd" d="M337.278 25.6758L340.073 22.88V30.5308C340.073 30.774 340.169 31.0073 340.341 31.1793C340.513 31.3513 340.746 31.4479 340.99 31.4479C341.233 31.4479 341.466 31.3513 341.638 31.1793C341.81 31.0073 341.907 30.774 341.907 30.5308V22.8808L344.703 25.6758C344.787 25.7614 344.888 25.8293 345 25.8756C345.111 25.9219 345.23 25.9458 345.351 25.9458C345.471 25.9458 345.59 25.9219 345.701 25.8756C345.813 25.8293 345.914 25.7614 345.998 25.6758C346.084 25.5907 346.151 25.4896 346.197 25.3784C346.243 25.2671 346.267 25.1479 346.267 25.0275C346.267 24.9071 346.243 24.7878 346.197 24.6766C346.151 24.5653 346.084 24.4643 345.998 24.3791L341.638 20.0183C341.465 19.8474 341.232 19.7515 340.99 19.7515C340.747 19.7515 340.514 19.8474 340.342 20.0183L335.981 24.3791C335.819 24.5531 335.731 24.783 335.736 25.0205C335.74 25.258 335.836 25.4845 336.004 25.6524C336.172 25.8204 336.399 25.9167 336.636 25.921C336.874 25.9254 337.104 25.8375 337.278 25.6758Z" fill="#C8C8C8"/>
<path fill-rule="evenodd" clip-rule="evenodd" d="M347.984 28.909C347.478 28.909 347.067 29.3199 347.067 29.8257V33.3315C347.067 33.929 346.581 34.4149 345.984 34.4149H335.997C335.399 34.4149 334.913 33.929 334.913 33.3315V29.8249C334.913 29.5818 334.817 29.3486 334.645 29.1767C334.473 29.0048 334.24 28.9082 333.997 28.9082C333.754 28.9082 333.52 29.0048 333.349 29.1767C333.177 29.3486 333.08 29.5818 333.08 29.8249V33.3315C333.08 34.9399 334.388 36.2482 335.997 36.2482H345.984C347.592 36.2482 348.901 34.9399 348.901 33.3315V29.8249C348.901 29.5818 348.804 29.3486 348.632 29.1767C348.461 29.0048 348.227 28.9082 347.984 28.9082" fill="#C8C8C8"/>
<g filter="url(#filter0_d_1_4908)">
<rect x="21" y="8" width="40" height="40" rx="12" fill="#222222" fill-opacity="0.35" shape-rendering="crispEdges"/>
<path fill-rule="evenodd" clip-rule="evenodd" d="M42.5124 27.9999L47.2215 23.2908C47.3145 23.1979 47.3882 23.0877 47.4385 22.9663C47.4888 22.845 47.5147 22.7149 47.5147 22.5836C47.5148 22.4522 47.4889 22.3221 47.4387 22.2008C47.3885 22.0794 47.3148 21.9691 47.222 21.8762C47.1291 21.7833 47.0189 21.7096 46.8975 21.6593C46.7762 21.609 46.6461 21.583 46.5148 21.583C46.3834 21.583 46.2533 21.6088 46.132 21.659C46.0106 21.7093 45.9003 21.7829 45.8074 21.8758L41.0982 26.5858L36.3882 21.8758C36.1985 21.6986 35.9474 21.602 35.6878 21.6065C35.4283 21.611 35.1807 21.7161 34.9972 21.8997C34.8137 22.0833 34.7087 22.331 34.7044 22.5906C34.7001 22.8501 34.7968 23.1012 34.974 23.2908L39.684 27.9999L34.974 32.7091C34.8348 32.8493 34.7402 33.0275 34.702 33.2213C34.6638 33.4151 34.6838 33.6159 34.7594 33.7984C34.835 33.9809 34.9629 34.1369 35.127 34.2469C35.2911 34.3569 35.484 34.416 35.6815 34.4166C35.9374 34.4166 36.1932 34.3191 36.3882 34.1241L41.0982 29.4141L45.8074 34.1241C45.9001 34.2172 46.0103 34.291 46.1317 34.3414C46.253 34.3917 46.3831 34.4177 46.5145 34.4177C46.6458 34.4177 46.7759 34.3917 46.8973 34.3414C47.0186 34.291 47.1288 34.2172 47.2215 34.1241C47.3145 34.0312 47.3883 33.9209 47.4386 33.7995C47.4889 33.6781 47.5148 33.548 47.5148 33.4166C47.5148 33.2852 47.4889 33.1551 47.4386 33.0337C47.3883 32.9123 47.3145 32.802 47.2215 32.7091L42.5124 27.9999Z" fill="white"/>
</g>
</g>
<defs>
<filter id="filter0_d_1_4908" x="13" y="4" width="56" height="56" filterUnits="userSpaceOnUse" color-interpolation-filters="sRGB">
<feFlood flood-opacity="0" result="BackgroundImageFix"/>
<feColorMatrix in="SourceAlpha" type="matrix" values="0 0 0 0 0 0 0 0 0 0 0 0 0 0 0 0 0 0 127 0" result="hardAlpha"/>
<feOffset dy="4"/>
<feGaussianBlur stdDeviation="4"/>
<feComposite in2="hardAlpha" operator="out"/>
<feColorMatrix type="matrix" values="0 0 0 0 0 0 0 0 0 0 0 0 0 0 0 0 0 0 0.05 0"/>
<feBlend mode="normal" in2="BackgroundImageFix" result="effect1_dropShadow_1_4908"/>
<feBlend mode="normal" in="SourceGraphic" in2="effect1_dropShadow_1_4908" result="shape"/>
</filter>
<clipPath id="clip0_1_4908">
<rect width="375" height="56" fill="white"/>
</clipPath>
</defs>
</svg>
