<svg width="28" height="28" viewBox="0 0 28 28" fill="none" xmlns="http://www.w3.org/2000/svg">
<path fill-rule="evenodd" clip-rule="evenodd" d="M10.2776 11.6758L13.0726 8.87998V16.5308C13.0726 16.774 13.1692 17.0073 13.3412 17.1793C13.5132 17.3513 13.7465 17.4479 13.9897 17.4479C14.2329 17.4479 14.4662 17.3513 14.6382 17.1793C14.8102 17.0073 14.9068 16.774 14.9068 16.5308V8.88082L17.7026 11.6758C17.7874 11.7614 17.8884 11.8293 17.9996 11.8756C18.1108 11.9219 18.2301 11.9458 18.3505 11.9458C18.471 11.9458 18.5903 11.9219 18.7015 11.8756C18.8127 11.8293 18.9136 11.7614 18.9985 11.6758C19.0836 11.5907 19.1512 11.4896 19.1973 11.3784C19.2434 11.2671 19.2671 11.1479 19.2671 11.0275C19.2671 10.9071 19.2434 10.7878 19.1973 10.6766C19.1512 10.5653 19.0836 10.4643 18.9985 10.3791L14.6376 6.01832C14.4653 5.84738 14.2324 5.75146 13.9897 5.75146C13.747 5.75146 13.5141 5.84738 13.3418 6.01832L8.98095 10.3791C8.81929 10.5531 8.73139 10.783 8.73575 11.0205C8.74011 11.258 8.83638 11.4845 9.00433 11.6524C9.17227 11.8204 9.39879 11.9167 9.63626 11.921C9.87372 11.9254 10.1036 11.8375 10.2776 11.6758Z" fill="#C8C8C8"/>
<path fill-rule="evenodd" clip-rule="evenodd" d="M20.9842 14.909C20.4784 14.909 20.0667 15.3199 20.0667 15.8257V19.3315C20.0667 19.929 19.5809 20.4149 18.9842 20.4149H8.99674C8.39924 20.4149 7.91341 19.929 7.91341 19.3315V15.8249C7.91341 15.5818 7.81683 15.3486 7.64493 15.1767C7.47302 15.0048 7.23986 14.9082 6.99674 14.9082C6.75363 14.9082 6.52047 15.0048 6.34856 15.1767C6.17666 15.3486 6.08008 15.5818 6.08008 15.8249V19.3315C6.08008 20.9399 7.38841 22.2482 8.99674 22.2482H18.9842C20.5917 22.2482 21.9009 20.9399 21.9009 19.3315V15.8249C21.9009 15.5818 21.8043 15.3486 21.6324 15.1767C21.4605 15.0048 21.2274 14.9082 20.9842 14.9082" fill="#C8C8C8"/>
</svg>
