<svg width="154" height="56" viewBox="0 0 154 56" fill="none" xmlns="http://www.w3.org/2000/svg">
<path d="M132.745 10.2349H141.085L140.158 14.5962C142.089 12.9292 144.347 12.0957 146.934 12.0957C149.096 12.0957 150.815 12.8129 152.089 14.2473C153.363 15.6817 154 18.0272 154 21.2837C154 24.3463 153.556 27.4477 152.668 30.5879C151.78 33.6893 150.274 36.3449 148.151 38.5547C146.027 40.7257 143.228 41.8112 139.753 41.8112C137.282 41.8112 135.641 41.1133 134.83 39.7177L131.818 53.9067L123.073 56.0001L132.745 10.2349ZM137.957 36.752C139.811 36.752 141.336 35.8797 142.533 34.1351C143.768 32.3906 144.656 30.3165 145.197 27.9129C145.776 25.4706 146.066 23.2027 146.066 21.1092C146.066 17.8915 145.1 16.2826 143.17 16.2826C142.475 16.2826 141.76 16.5346 141.027 17.0386C140.332 17.5426 139.714 18.2404 139.173 19.132L135.756 35.4145C136.065 36.3061 136.799 36.752 137.957 36.752Z" fill="white"/>
<path d="M124.05 0H122.376V2.85041H124.05V0Z" fill="white"/>
<path d="M124.05 0H122.376V2.85041H124.05V0Z" fill="#C2FFE5"/>
<path d="M126.808 1.96976L124.05 2.85059L124.567 4.41521L127.325 3.53438L126.808 1.96976Z" fill="white"/>
<path d="M126.808 1.96976L124.05 2.85059L124.567 4.41521L127.325 3.53438L126.808 1.96976Z" fill="#C2FFE5"/>
<path d="M124.567 4.41533L123.213 5.38232L124.918 7.68836L126.272 6.72137L124.567 4.41533Z" fill="white"/>
<path d="M124.567 4.41533L123.213 5.38232L124.918 7.68836L126.272 6.72137L124.567 4.41533Z" fill="#C2FFE5"/>
<path d="M120.155 6.72101L119 8.28287L120.354 9.2499L123.213 5.38197L121.859 4.41504L120.155 6.72101Z" fill="white"/>
<path d="M120.155 6.72101L119 8.28287L120.354 9.2499L123.213 5.38197L121.859 4.41504L120.155 6.72101Z" fill="#C2FFE5"/>
<path d="M119.618 1.96956L119.101 3.53418L121.859 4.41501L122.376 2.85038L119.618 1.96956Z" fill="white"/>
<path d="M119.618 1.96956L119.101 3.53418L121.859 4.41501L122.376 2.85038L119.618 1.96956Z" fill="#C2FFE5"/>
<path d="M118.636 41.8114C116.783 41.8114 115.277 41.2299 114.119 40.0669C112.999 38.9038 112.439 37.1593 112.439 34.8332C112.439 33.864 112.593 32.6041 112.902 31.0534L116.841 12.3867H125.181L121.011 32.1582C120.856 32.7398 120.779 33.36 120.779 34.0191C120.779 34.7944 120.953 35.3566 121.3 35.7055C121.686 36.0156 122.304 36.1707 123.153 36.1707C124.273 36.1707 125.316 35.7055 126.281 34.7751C127.246 33.8059 127.941 32.5653 128.366 31.0534H130.798C129.37 35.2403 127.536 38.0897 125.296 39.6016C123.057 41.0748 120.837 41.8114 118.636 41.8114Z" fill="white"/>
<path d="M95.0654 12.3867H103.405L102.652 15.9921C103.965 14.8291 105.143 13.9374 106.185 13.3171C107.266 12.6969 108.425 12.3867 109.66 12.3867C110.896 12.3867 111.861 12.8132 112.556 13.6661C113.29 14.5189 113.657 15.5463 113.657 16.7481C113.657 17.8723 113.29 18.8609 112.556 19.7138C111.823 20.5667 110.799 20.9931 109.487 20.9931C108.637 20.9931 108.058 20.7993 107.749 20.4116C107.479 19.9852 107.266 19.3843 107.112 18.6089C106.996 18.105 106.88 17.7367 106.764 17.5041C106.649 17.2714 106.436 17.1551 106.127 17.1551C105.317 17.1551 104.622 17.3296 104.042 17.6785C103.502 17.9886 102.788 18.5508 101.9 19.3649L97.2662 41.4625H88.9263L95.0654 12.3867Z" fill="white"/>
<path d="M81.4207 41.8109C79.5674 41.8109 78.0615 41.2294 76.9032 40.0663C75.7835 38.9033 75.2236 37.1588 75.2236 34.8327C75.2236 33.8635 75.3781 32.6035 75.687 31.0528L79.1619 14.7122H77.2507L77.714 12.3862H79.6253L81.3628 4.36128L89.9344 3.19824L87.9652 12.3862H91.4402L90.9769 14.7122H87.5019L83.7953 32.1577C83.6408 32.7392 83.5636 33.3595 83.5636 34.0186C83.5636 34.7939 83.7373 35.3561 84.0848 35.705C84.4709 36.0151 85.0887 36.1702 85.9382 36.1702C87.0579 36.1702 88.1004 35.705 89.0656 34.7745C90.0309 33.8053 90.7259 32.5648 91.1506 31.0528H93.5831C92.1545 35.2397 90.3205 38.0892 88.0811 39.6011C85.8416 41.0743 83.6215 41.8109 81.4207 41.8109Z" fill="white"/>
<path d="M61.7415 41.8113C58.8843 41.8113 56.6642 41.0747 55.0811 39.6016C53.4981 38.0896 52.7065 35.7442 52.7065 32.5652C52.7065 29.8903 53.2278 26.9439 54.2703 23.7262C55.3128 20.5085 57.0117 17.7366 59.3669 15.4105C61.7222 13.0457 64.7145 11.8633 68.344 11.8633C72.5911 11.8633 74.7148 13.7241 74.7148 17.4458C74.7148 19.6168 74.097 21.6134 72.8614 23.4354C71.6259 25.2575 69.9849 26.7307 67.9385 27.855C65.8922 28.9405 63.7106 29.5607 61.394 29.7158C61.3168 30.8788 61.2782 31.6542 61.2782 32.0419C61.2782 33.9415 61.6064 35.2402 62.2627 35.938C62.9191 36.5971 63.9809 36.9266 65.4481 36.9266C67.5331 36.9266 69.3092 36.442 70.7764 35.4728C72.2823 34.5036 73.9232 33.0304 75.6993 31.0533H77.6685C73.3827 38.2253 68.0737 41.8113 61.7415 41.8113ZM61.8573 26.9245C63.2859 26.847 64.6373 26.343 65.9115 25.4126C67.2242 24.4822 68.2667 23.2998 69.0389 21.8653C69.8498 20.4309 70.2552 18.919 70.2552 17.3295C70.2552 15.7401 69.7726 14.9453 68.8073 14.9453C67.4173 14.9453 66.0466 16.1665 64.6952 18.6089C63.3825 21.0512 62.4365 23.8231 61.8573 26.9245Z" fill="white"/>
<path d="M43.7522 41.8109C41.8989 41.8109 40.3931 41.2293 39.2347 40.0663C38.115 38.9033 37.5552 37.1587 37.5552 34.8327C37.5552 33.8635 37.7096 32.6035 38.0185 31.0528L44.2156 1.91889L52.7872 0.755859L46.1268 32.1577C45.9724 32.7392 45.8951 33.3595 45.8951 34.0185C45.8951 34.7939 46.0689 35.356 46.4164 35.7049C46.8025 36.0151 47.4203 36.1702 48.2697 36.1702C49.3894 36.1702 50.4319 35.7049 51.3972 34.7745C52.3625 33.8053 53.0574 32.5648 53.4822 31.0528H55.9147C54.486 35.2397 52.652 38.0892 50.4126 39.6011C48.1732 41.0743 45.953 41.8109 43.7522 41.8109Z" fill="white"/>
<path d="M22.5061 41.8114C20.6528 41.8114 19.089 41.4625 17.8149 40.7646C16.5407 40.028 15.5947 39.0976 14.977 37.9734C14.3592 36.8103 14.0503 35.6085 14.0503 34.368C14.0503 33.0886 14.3592 31.9838 14.977 31.0533C15.5561 30.0841 16.2704 29.3863 17.1199 28.9599C18.6257 26.2461 19.9385 23.513 21.0582 20.7605C22.1779 17.9692 23.2397 14.9647 24.2436 11.747L32.8152 10.584C33.0082 15.5462 33.3364 20.9156 33.7998 26.692C33.9928 29.018 34.0893 30.7044 34.0893 31.7511C34.0893 32.6428 34.0121 33.3794 33.8577 33.9609C35.6724 32.9142 37.0624 31.945 38.0277 31.0533H40.4601C37.989 33.9221 35.0353 36.3451 31.5989 38.3223C30.4792 39.5241 29.0892 40.4157 27.429 40.9972C25.8073 41.54 24.1663 41.8114 22.5061 41.8114ZM20.6528 37.2174C22.0814 37.2174 23.2783 36.7909 24.2436 35.9381C25.2088 35.0852 25.6915 33.7089 25.6915 31.8093C25.6915 30.6463 25.5756 29.018 25.344 26.9246C24.9579 22.5051 24.7069 19.5393 24.5911 18.0274C23.6644 21.09 22.1007 24.7536 19.8998 29.018C20.7879 29.4832 21.2319 30.1617 21.2319 31.0533C21.2319 31.7899 20.9809 32.449 20.479 33.0305C20.0157 33.612 19.4172 33.9028 18.6836 33.9028C17.8728 33.9028 17.3515 33.6508 17.1199 33.1468C17.1199 34.5424 17.3901 35.5698 17.9307 36.2288C18.5099 36.8879 19.4172 37.2174 20.6528 37.2174Z" fill="white"/>
<path d="M10.1354 9.2461C8.8612 9.2461 7.78009 8.80027 6.89204 7.90861C6.00399 7.01696 5.55997 5.93146 5.55997 4.65213C5.55997 3.37279 6.00399 2.2873 6.89204 1.39564C7.78009 0.465213 8.8612 0 10.1354 0C11.4095 0 12.4906 0.465213 13.3787 1.39564C14.3053 2.2873 14.7687 3.37279 14.7687 4.65213C14.7687 5.93146 14.3053 7.01696 13.3787 7.90861C12.4906 8.80027 11.4095 9.2461 10.1354 9.2461ZM6.19705 41.811C4.34373 41.811 2.8379 41.2295 1.67957 40.0664C0.559858 38.9034 0 37.1588 0 34.8328C0 33.8636 0.154444 32.6036 0.463331 31.0529L4.40164 12.3863H12.7416L8.57162 32.1578C8.41717 32.7393 8.33995 33.3596 8.33995 34.0187C8.33995 34.794 8.5137 35.3561 8.8612 35.7051C9.24731 36.0152 9.86508 36.1703 10.7145 36.1703C11.8342 36.1703 12.8767 35.7051 13.842 34.7746C14.8073 33.8054 15.5023 32.5649 15.927 31.0529H18.3595C16.9309 35.2398 15.0969 38.0893 12.8574 39.6012C10.618 41.0744 8.39787 41.811 6.19705 41.811Z" fill="white"/>
</svg>
