<svg width="335" height="45" viewBox="0 0 335 45" fill="none" xmlns="http://www.w3.org/2000/svg">
<rect x="0.5" width="334" height="45" rx="8" fill="#FEE500"/>
<path fill-rule="evenodd" clip-rule="evenodd" d="M28.5 15C24.0815 15 20.5 17.7794 20.5 21.2074C20.5 23.3393 21.8853 25.2187 23.9947 26.3366L23.1071 29.5933C23.0287 29.8811 23.3564 30.1104 23.608 29.9437L27.4986 27.3645C27.8269 27.3963 28.1605 27.4149 28.5 27.4149C32.9182 27.4149 36.5 24.6355 36.5 21.2074C36.5 17.7794 32.9182 15 28.5 15Z" fill="black"/>
<path d="M117.254 27.5V18.3086H118.905V22.5361H119.032L122.625 18.3086H124.643L121.088 22.4346L124.681 27.5H122.688L119.933 23.5518L118.905 24.7578V27.5H117.254ZM125.303 25.5576C125.303 24.0088 126.592 23.5581 127.868 23.4756C128.35 23.4375 129.334 23.3931 129.639 23.3804L129.632 22.8281C129.632 22.1426 129.194 21.749 128.388 21.749C127.665 21.749 127.22 22.0791 127.093 22.5742H125.532C125.646 21.3999 126.7 20.5176 128.426 20.5176C129.734 20.5176 131.245 21.0571 131.245 22.8916V27.5H129.696V26.5479H129.645C129.34 27.1318 128.699 27.6396 127.614 27.6396C126.3 27.6396 125.303 26.9224 125.303 25.5576ZM126.865 25.5449C126.865 26.1416 127.354 26.4463 128.033 26.4463C129.017 26.4463 129.645 25.7988 129.645 25.0244L129.639 24.4595C129.347 24.4722 128.445 24.5293 128.122 24.5547C127.354 24.6182 126.865 24.9419 126.865 25.5449ZM132.768 27.5V18.3086H134.393V23.374H134.507L136.983 20.6064H138.875L136.202 23.5771L139.04 27.5H137.11L134.99 24.542L134.393 25.1768V27.5H132.768ZM139.522 25.5576C139.522 24.0088 140.811 23.5581 142.086 23.4756C142.569 23.4375 143.553 23.3931 143.857 23.3804L143.851 22.8281C143.851 22.1426 143.413 21.749 142.607 21.749C141.883 21.749 141.439 22.0791 141.312 22.5742H139.75C139.865 21.3999 140.918 20.5176 142.645 20.5176C143.953 20.5176 145.463 21.0571 145.463 22.8916V27.5H143.915V26.5479H143.864C143.559 27.1318 142.918 27.6396 141.833 27.6396C140.519 27.6396 139.522 26.9224 139.522 25.5576ZM141.083 25.5449C141.083 26.1416 141.572 26.4463 142.251 26.4463C143.235 26.4463 143.864 25.7988 143.864 25.0244L143.857 24.4595C143.565 24.4722 142.664 24.5293 142.34 24.5547C141.572 24.6182 141.083 24.9419 141.083 25.5449ZM149.996 27.6396C147.983 27.6396 146.695 26.2114 146.695 24.085C146.695 21.9395 147.983 20.5176 149.996 20.5176C152.014 20.5176 153.303 21.9395 153.296 24.085C153.303 26.2114 152.014 27.6396 149.996 27.6396ZM148.333 24.0723C148.333 25.3354 148.885 26.3447 150.008 26.3447C151.113 26.3447 151.665 25.3354 151.659 24.0723C151.665 22.8091 151.113 21.7935 150.008 21.7998C148.885 21.7935 148.333 22.8091 148.333 24.0723ZM167.147 17.1533V28.6299H165.801V17.1533H167.147ZM157.13 25.2021C159.504 23.7993 160.596 22.0029 160.812 19.6924H157.74V18.5498H162.208C162.208 19.1274 162.17 19.6924 162.088 20.2383H163.427V17.4326H164.773V28.084H163.427V24.25H161.637V23.0947H163.427V21.3936H161.847C161.301 23.2979 160.107 24.9355 157.956 26.2051L157.13 25.2021ZM178.09 17.1533V23.9707H176.681V21.165H174.726V20.0098H176.681V17.1533H178.09ZM168.442 22.8281C170.289 22.1934 171.26 20.6509 171.26 19.1338V19.0449H168.874V17.9023H175.069V19.0449H172.695V19.1211C172.695 20.5176 173.622 21.9268 175.399 22.5234L174.688 23.6406C173.412 23.209 172.511 22.333 172.003 21.2539C171.501 22.4727 170.543 23.4629 169.178 23.9453L168.442 22.8281ZM170.308 26.4463C170.295 25.0688 171.787 24.2627 174.206 24.2627C176.637 24.2627 178.122 25.0688 178.128 26.4463C178.122 27.8237 176.637 28.6235 174.206 28.6299C171.787 28.6235 170.295 27.8237 170.308 26.4463ZM171.705 26.4463C171.698 27.1572 172.612 27.5444 174.206 27.5381C175.812 27.5444 176.719 27.1572 176.719 26.4463C176.719 25.729 175.812 25.3418 174.206 25.3418C172.612 25.3418 171.698 25.729 171.705 26.4463ZM184.933 17.8008C187.352 17.8008 189.218 19.0894 189.211 21.0381C189.218 23.0122 187.352 24.3008 184.933 24.3008C182.527 24.3008 180.674 23.0122 180.68 21.0381C180.674 19.0894 182.527 17.8008 184.933 17.8008ZM179.715 27.1826V26.0273H190.202V27.1826H179.715ZM182.039 21.0381C182.032 22.3394 183.264 23.1392 184.933 23.1455C186.609 23.1392 187.828 22.3394 187.828 21.0381C187.828 19.7686 186.609 18.9307 184.933 18.9434C183.264 18.9307 182.032 19.7686 182.039 21.0381ZM201.437 26.1289V27.2969H190.951V26.1289H195.47V24.2627H192.195V20.5049H198.796V19.083H192.169V17.9404H200.193V21.6221H193.604V23.1074H200.459V24.2627H196.867V26.1289H201.437ZM215.757 26.1289V27.2969H205.271V26.1289H209.791V24.2627H206.515V20.5049H213.117V19.083H206.49V17.9404H214.513V21.6221H207.924V23.1074H214.78V24.2627H211.187V26.1289H215.757ZM225.634 18.2705V19.5654C225.634 21.1016 225.634 22.6821 225.215 25.1006L223.781 24.9736C224.225 22.7202 224.225 21.0571 224.225 19.5654V19.4131H217.611V18.2705H225.634ZM216.506 27.0557V25.9004H226.967V27.0557H216.506ZM237.301 17.166V25.4561H235.879V17.166H237.301ZM227.945 20.7842C227.945 19.1147 229.297 17.9214 231.042 17.915C232.788 17.9214 234.134 19.1147 234.127 20.7842C234.134 22.479 232.788 23.666 231.042 23.666C229.297 23.666 227.945 22.479 227.945 20.7842ZM229.329 20.7842C229.322 21.7998 230.059 22.4346 231.042 22.4346C232.001 22.4346 232.744 21.7998 232.744 20.7842C232.744 19.7939 232.001 19.1465 231.042 19.1465C230.059 19.1465 229.322 19.7939 229.329 20.7842ZM229.709 28.4014V24.6182H231.131V27.2588H237.619V28.4014H229.709Z" fill="black" fill-opacity="0.85"/>
</svg>
