<svg width="52" height="52" viewBox="0 0 52 52" fill="none" xmlns="http://www.w3.org/2000/svg">
    <defs>
        <linearGradient id="paint0_linear_675_2202" x1="9.17647" y1="1.46862e-06" x2="45.1176" y2="48.1765" gradientUnits="userSpaceOnUse">
            <stop stop-color="#1BB874"/>
            <stop offset="1" stop-color="#1BAFB8"/>
        </linearGradient>
        <clipPath id="clip0_675_2202">
            <rect width="33" height="33" fill="white" transform="translate(9.17865 9.49983)"/>
        </clipPath>
    </defs>
    <rect width="52" height="52" rx="26" fill="url(#paint0_linear_675_2202)"/>
<g clip-path="url(#clip0_675_2202)">
<path d="M27.7124 17.7671L26.9494 17.6153L27.1791 18.4535L27.7124 17.7671Z" fill="white"/>
<path d="M29.2798 18.3233L28.5603 18.025L28.6224 18.8922L29.2798 18.3233Z" fill="white"/>
<path d="M30.061 18.74L29.9528 19.6033L30.7092 19.1717L30.061 18.74Z" fill="white"/>
<path d="M32.938 21.6164L32.5063 20.9696L32.076 21.726L32.938 21.6164Z" fill="white"/>
<path d="M33.654 23.1173L33.3556 22.3979L32.7854 23.0552L33.654 23.1173Z" fill="white"/>
<path d="M34.0644 24.7287L33.9126 23.9658L33.2248 24.499L34.0644 24.7287Z" fill="white"/>
<path d="M34.0644 27.2714L33.2248 27.5011L33.9126 28.0344L34.0644 27.2714Z" fill="white"/>
<path d="M33.654 28.8817L32.7854 28.9437L33.3556 29.6011L33.654 28.8817Z" fill="white"/>
<path d="M32.5063 31.0305L32.938 30.3823L32.076 30.2741L32.5063 31.0305Z" fill="white"/>
<path d="M30.7092 32.827L29.9528 32.3967L30.061 33.2599L30.7092 32.827Z" fill="white"/>
<path d="M28.6224 33.1083L28.5603 33.9755L29.2798 33.6772L28.6224 33.1083Z" fill="white"/>
<path d="M26.9494 34.3837L27.7124 34.2332L27.1791 33.5468L26.9494 34.3837Z" fill="white"/>
<path d="M23.6454 34.2332L24.4071 34.3837L24.1774 33.5468L23.6454 34.2332Z" fill="white"/>
<path d="M22.0765 33.6772L22.7946 33.9755L22.7339 33.1083L22.0765 33.6772Z" fill="white"/>
<path d="M21.2951 33.2599L21.4047 32.3967L20.6483 32.827L21.2951 33.2599Z" fill="white"/>
<path d="M18.4178 30.3823L18.8507 31.0305L19.2811 30.2741L18.4178 30.3823Z" fill="white"/>
<path d="M17.7033 28.8817L18.0004 29.6011L18.5706 28.9437L17.7033 28.8817Z" fill="white"/>
<path d="M17.2946 27.2714L17.4465 28.0344L18.1329 27.5011L17.2946 27.2714Z" fill="white"/>
<path d="M17.2946 24.7287L18.1329 24.499L17.4465 23.9658L17.2946 24.7287Z" fill="white"/>
<path d="M17.7033 23.1185L18.5706 23.0565L18.0004 22.3991L17.7033 23.1185Z" fill="white"/>
<path d="M18.8507 20.9696L18.4178 21.6164L19.2811 21.726L18.8507 20.9696Z" fill="white"/>
<path d="M20.6483 19.1717L21.4047 19.6033L21.2951 18.74L20.6483 19.1717Z" fill="white"/>
<path d="M22.7339 18.8922L22.7946 18.025L22.0765 18.3233L22.7339 18.8922Z" fill="white"/>
<path d="M24.4071 17.6153L23.6454 17.7671L24.1774 18.4535L24.4071 17.6153Z" fill="white"/>
<path d="M42.1786 26.1305L42.172 25.9985L42.1786 25.8678L36.2015 25.2699C36.0298 22.7672 34.9857 20.5047 33.3699 18.7834L34.1778 17.6825L34.0788 17.598L33.9943 17.499L32.896 18.3056C31.1747 16.6899 28.9108 15.6471 26.4067 15.4768L25.81 9.49983L25.678 9.50643L25.5473 9.49983L24.9493 15.4755C22.4452 15.6471 20.1839 16.6912 18.4626 18.3069L17.3617 17.499L17.2785 17.5954L17.1768 17.6825L17.9821 18.7821C16.3663 20.5034 15.3248 22.7672 15.1532 25.2699L9.19185 25.8665L9.17865 25.8678L9.18525 25.9985L9.17865 26.1305L15.1532 26.7272C15.3248 29.2312 16.369 31.4924 17.9847 33.2136L17.1768 34.3145L17.2759 34.399L17.3617 34.498L18.4599 33.6928C20.1813 35.3085 22.4452 36.35 24.948 36.5216L25.546 42.4985L25.6767 42.4919L25.8087 42.4985L26.4067 36.5216C28.9108 36.35 31.172 35.3058 32.8934 33.6902L33.9943 34.4967L34.0814 34.395L34.1778 34.3119L33.3699 33.211C34.9857 31.4897 36.0298 29.2286 36.2015 26.7258L42.1786 26.1279V26.1305ZM29.4679 27.1364C29.5642 26.8169 29.6197 26.4803 29.6315 26.1318H39.5214L29.4692 27.1364H29.4679ZM22.9085 25.9998C22.9085 24.4713 24.148 23.2305 25.678 23.2305C27.2079 23.2305 28.4475 24.4713 28.4475 25.9998C28.4475 27.5284 27.2066 28.7692 25.678 28.7692C24.1494 28.7692 22.9085 27.5284 22.9085 25.9998ZM28.5676 23.2978L32.9436 18.922L29.1471 24.0977C28.9874 23.8073 28.792 23.5394 28.5663 23.2991L28.5676 23.2978ZM25.81 22.0464V12.157L26.8159 22.2101C26.4964 22.1138 26.1585 22.0583 25.81 22.0464ZM22.9758 23.1104L18.5999 18.7346L23.7758 22.5309C23.4854 22.6906 23.2174 22.886 22.9772 23.1104H22.9758ZM22.7884 28.7019L18.4111 33.0777L22.2076 27.902C22.3673 28.1937 22.5627 28.4616 22.7884 28.7019ZM25.546 29.9532V39.8427L24.5401 29.7896C24.8596 29.8859 25.1975 29.9414 25.546 29.9532ZM28.3815 28.8893L30.6321 31.1399L32.7588 33.2664L27.5815 29.4701C27.8719 29.3104 28.1412 29.1137 28.3815 28.8893ZM34.3428 25.0851L29.3741 24.5874C29.3451 24.5109 29.3134 24.437 29.2804 24.363L32.2651 20.2922C33.4016 21.6056 34.1527 23.2608 34.3428 25.0838V25.0851ZM31.3872 19.4117L27.3149 22.3976C27.2409 22.3646 27.167 22.3329 27.0904 22.3038L26.5915 17.3208C28.4171 17.5149 30.0751 18.2686 31.3872 19.4117ZM24.7658 17.3142L24.2669 22.3038C24.1903 22.3329 24.115 22.3646 24.0411 22.3976L19.949 19.3972C21.269 18.2554 22.9323 17.5017 24.7645 17.3142H24.7658ZM19.0738 20.2684L22.0756 24.363C22.0426 24.437 22.0109 24.5122 21.9805 24.5888L16.9775 25.089C17.1676 23.2542 17.9253 21.5884 19.0724 20.2697L19.0738 20.2684ZM21.8881 24.862C21.7918 25.1814 21.7363 25.518 21.7244 25.8665H11.8359L21.8881 24.862ZM16.9749 26.9106L21.9805 27.4109C22.0096 27.4875 22.0412 27.5627 22.0756 27.6366L19.0738 31.73C17.9253 30.4113 17.1663 28.7454 16.9762 26.9106H16.9749ZM19.9476 32.6038L24.0411 29.6021C24.115 29.6364 24.1903 29.6681 24.2669 29.6972L24.7658 34.6828C22.9323 34.4967 21.2677 33.7456 19.949 32.6038H19.9476ZM26.5915 34.6815L27.0904 29.6972C27.167 29.6681 27.2409 29.6364 27.3149 29.6021L31.3859 32.5866C30.0738 33.7298 28.4171 34.4861 26.5915 34.6815ZM32.2651 31.7062L29.2804 27.6353C29.3134 27.5614 29.3451 27.4862 29.3741 27.4109L34.3402 26.9146C34.1501 28.7375 33.4003 30.3928 32.2651 31.7062Z" fill="white"/>
<path d="M28.032 26.0184C28.032 24.7182 26.9786 23.6635 25.6783 23.6635C24.3781 23.6635 23.3233 24.7168 23.3233 26.0184C23.3233 27.3199 24.3767 28.3719 25.6783 28.3719C26.9799 28.3719 28.032 27.3186 28.032 26.0184ZM24.9813 26.0184C24.9813 25.6435 25.2849 25.3399 25.6598 25.3399C26.0347 25.3399 26.3383 25.6435 26.3383 26.0184C26.3383 26.3932 26.0347 26.6968 25.6598 26.6968C25.2849 26.6968 24.9813 26.3932 24.9813 26.0184Z" fill="white"/>
</g>
</svg>
